<svg width="135" height="140" viewBox="0 0 135 140" fill="none" xmlns="http://www.w3.org/2000/svg">
<path fill-rule="evenodd" clip-rule="evenodd" d="M11.6567 6.09462C7.72581 4.23098 3.93394 2.19104 0.281109 0C-0.565742 25.8266 13.7043 50.9354 38.6548 62.7469C72.2508 78.676 112.457 64.4846 128.459 31.0523C133.224 21.1045 135.284 10.5774 134.968 0.264436C98.7054 21.8223 52.6595 25.5244 11.6567 6.09462ZM11.6564 133.905C7.7255 135.769 3.93363 137.809 0.280796 140C-0.566055 114.173 13.704 89.0772 38.6545 77.2657C72.2505 61.3366 112.457 75.528 128.459 108.96C133.224 118.908 135.284 129.435 134.968 139.748C98.7051 118.19 52.6465 114.476 11.6564 133.905Z" fill="#F5F5F5"/>
</svg>
