<svg width="441" height="140" viewBox="0 0 441 140" fill="none" xmlns="http://www.w3.org/2000/svg">
<path fill-rule="evenodd" clip-rule="evenodd" d="M229.44 5.16837C226.212 3.64303 223.097 1.96961 220.096 0.172772L220.091 0.167836C220.071 0.845648 220.064 1.52281 220.07 2.19899C219.905 23.0903 231.615 43.1817 251.728 52.6857C279.317 65.7177 312.233 53.9001 325.255 26.2812C328.913 18.5229 330.6 10.3424 330.537 2.30017C330.543 1.53221 330.533 0.765325 330.508 0C300.845 17.8844 263.102 21.0733 229.44 5.16837ZM9.37776 5.16837C6.14938 3.64304 3.03454 1.96961 0.0332321 0.172777C0.0133317 0.854444 0.00612017 1.53545 0.0114767 2.21547C-0.153086 23.1027 11.5609 43.1884 31.6654 52.6907C59.2547 65.7226 92.1704 53.905 105.193 26.2861C108.854 18.5292 110.538 10.3503 110.475 2.30939C110.481 1.54 110.471 0.771689 110.445 0.00494118C80.7822 17.8894 43.0388 21.0782 9.37776 5.16837ZM9.37776 75.2449C6.14938 73.7195 3.03454 72.0461 0.0332322 70.2493C-0.588749 91.5546 11.1845 112.218 31.6605 121.893C59.2498 134.925 92.1655 123.108 105.188 95.4889C109.035 87.3397 110.698 78.7247 110.447 70.2934C113.195 68.6794 116.038 67.1694 118.975 65.7819C152.636 49.8769 190.379 53.0658 220.042 70.9502C220.068 70.1835 220.078 69.4152 220.072 68.6457C220.135 60.6049 218.451 52.4259 214.79 44.6691C201.767 17.0502 168.852 5.23254 141.262 18.2645C121.158 27.7668 109.444 47.8525 109.609 68.7397C109.604 69.3469 109.609 69.9549 109.624 70.5634C80.0923 88.0176 42.731 91.0044 9.37776 75.2449ZM118.975 134.832C115.746 136.357 112.632 138.03 109.63 139.827V139.832C109.008 118.527 120.782 97.8633 141.262 88.1831C168.852 75.1511 201.767 86.9687 214.79 114.588C218.67 122.807 220.328 131.5 220.042 140C190.379 122.116 152.636 118.927 118.975 134.832ZM435.716 44.6691C439.378 52.426 441.061 60.6049 440.998 68.6458C441.004 69.4153 440.994 70.1834 440.968 70.9502C411.311 53.0658 373.567 49.8769 339.906 65.7819C336.678 67.3072 333.563 68.9806 330.562 70.7775L330.552 70.7824C330.532 70.1048 330.525 69.428 330.531 68.752C330.366 47.8604 342.081 27.7687 362.189 18.2645C389.778 5.23254 422.694 17.0502 435.716 44.6691ZM339.906 134.832C336.678 136.357 333.563 138.03 330.562 139.827L330.552 139.832C329.935 118.527 341.708 97.8633 362.189 88.1831C389.778 75.1511 422.694 86.9687 435.716 114.588C439.596 122.807 441.255 131.5 440.968 140C411.311 122.116 373.567 118.927 339.906 134.832ZM220.096 70.2493C223.097 72.0461 226.212 73.7195 229.44 75.2449C263.102 91.1498 300.845 87.9609 330.508 70.0765C330.794 78.5769 329.13 87.2698 325.255 95.4888C312.233 123.108 279.317 134.925 251.728 121.893C231.242 112.213 219.474 91.5496 220.091 70.2443L220.096 70.2493Z" fill="#F5F5F5"/>
</svg>
