<svg width="142" height="140" viewBox="0 0 142 140" fill="none" xmlns="http://www.w3.org/2000/svg">
<path fill-rule="evenodd" clip-rule="evenodd" d="M6.57884 11.7312C4.65367 7.68565 2.53339 3.79616 0.27002 0.0367507C26.9882 -0.834807 52.9519 13.8386 65.1663 39.478C81.6342 74.0021 66.9613 115.343 32.3864 131.785C22.0972 136.689 11.2096 138.81 0.543184 138.484C22.8387 101.216 26.676 53.8652 6.57884 11.7312ZM76.6511 13.2145C74.7259 9.16894 72.6057 5.27945 70.3423 1.52004C97.0474 0.648486 123.011 15.3219 135.239 40.9613C151.719 75.4854 137.034 116.826 102.459 133.268C92.1695 138.173 81.2819 140.293 70.6155 139.968C92.9109 102.699 96.7483 55.3485 76.6511 13.2145Z" fill="#F5F5F5"/>
</svg>
