<svg width="148" height="141" viewBox="0 0 148 141" fill="none" xmlns="http://www.w3.org/2000/svg">
<path fill-rule="evenodd" clip-rule="evenodd" d="M110.027 0.160734C110.025 0.141415 110.023 0.122098 110.021 0.102783L109.983 0.141372C109.998 0.147817 110.012 0.154271 110.027 0.160734ZM110.027 0.160734C110.255 2.45738 110.369 4.79166 110.369 7.12593C110.369 31.8227 97.7871 53.5482 78.6445 66.2825C83.6617 68.8679 89.335 70.3343 95.3557 70.3343C115.579 70.3343 131.981 53.9341 131.981 33.7136C131.981 18.7197 122.932 5.8049 110.027 0.160734ZM24.3424 33.6751C24.3424 72.9198 56.1439 104.717 95.3939 104.717C115.965 104.717 134.49 95.9573 147.457 81.9882C139.97 115.252 110.291 140.103 74.7462 140.103C33.5664 140.103 0.182619 106.724 0.182619 65.5493C0.182619 41.1999 11.8766 19.5902 29.9386 5.96835C26.3493 14.4965 24.3424 23.8349 24.3424 33.6751Z" fill="#F5F5F5"/>
</svg>
