<svg width="148" height="140" viewBox="0 0 148 140" fill="none" xmlns="http://www.w3.org/2000/svg">
<path fill-rule="evenodd" clip-rule="evenodd" d="M66.2947 11.8569C68.2455 7.76795 70.394 3.83681 72.6874 0.0371485C45.6141 -0.843742 19.3052 13.9868 6.91527 39.9007C-9.77162 74.8077 5.1095 116.578 40.144 133.196C50.57 138.153 61.6024 140.296 72.4106 139.967C49.8187 102.299 45.9304 54.442 66.2947 11.8569ZM81.7823 11.8569C79.8316 7.76795 77.6831 3.83681 75.3896 0.0371485C102.463 -0.843742 128.772 13.9868 141.149 39.9007C157.849 74.7945 142.968 116.578 107.933 133.196C97.507 138.153 86.4747 140.296 75.6664 139.967C98.2583 102.299 102.147 54.442 81.7823 11.8569Z" fill="#F5F5F5"/>
</svg>
