<svg width="239" height="120" viewBox="0 0 239 120" fill="none" xmlns="http://www.w3.org/2000/svg">
<path fill-rule="evenodd" clip-rule="evenodd" d="M0.500001 61.333L0.504864 61.3412L0.500001 61.3414L0.500001 61.333ZM0.504864 61.3412C11.1516 60.9911 21.5035 66.9858 26.3735 77.4733C32.9358 91.5929 27.0844 108.496 13.306 115.221C9.20348 117.216 4.864 118.088 0.614409 117.954C9.49768 102.711 11.0259 83.3509 3.01706 66.1206C2.25024 64.4634 1.41013 62.8731 0.504864 61.3412ZM3.01706 5.0726C2.24887 3.41245 1.40712 1.81939 0.500001 0.285011C11.1485 -0.0755309 21.4946 5.92783 26.3653 16.4085C32.9276 30.5282 27.0763 47.4315 13.2978 54.1559C9.19531 56.1598 4.85583 57.0318 0.606237 56.8977C9.49768 41.6629 11.0259 22.3029 3.01706 5.0726ZM57.085 5.0726C57.8532 3.41245 58.695 1.81939 59.6021 0.285012C48.9536 -0.0755304 38.5993 5.92783 33.7286 16.4169C27.1663 30.5366 33.0177 47.4398 46.7961 54.1643C50.8986 56.1682 55.2381 57.0402 59.4877 56.906C50.6044 41.6629 49.0762 22.3029 57.085 5.0726ZM179.898 0.285006C180.797 1.81938 181.647 3.41245 182.415 5.0726C190.424 22.3029 188.896 41.6629 180.012 56.906C184.262 57.0402 188.602 56.1682 192.704 54.1643C206.482 47.4399 212.334 30.5366 205.771 16.4169C200.893 5.92783 190.547 -0.0755287 179.898 0.285006ZM236.483 5.0726C237.251 3.41246 238.093 1.81938 239 0.285007C228.352 -0.0755282 217.997 5.92783 213.127 16.4169C206.564 30.5365 212.416 47.4398 226.194 54.1643C230.297 56.1682 234.636 57.0402 238.886 56.906C230.002 41.6629 228.474 22.3029 236.483 5.0726ZM59.5972 61.3412L59.6021 61.333V61.3414L59.5972 61.3412ZM33.7286 77.4733C38.5986 66.9858 48.9505 60.9911 59.5972 61.3412C58.692 62.8731 57.8519 64.4634 57.085 66.1206C49.0762 83.3509 50.6044 102.711 59.4877 117.954C55.2381 118.088 50.8986 117.216 46.7961 115.221C33.0177 108.496 27.1663 91.5929 33.7286 77.4733ZM239 61.333L238.995 61.3412C228.348 60.9911 217.997 66.9858 213.127 77.4733C206.564 91.5929 212.416 108.496 226.194 115.221C230.297 117.216 234.636 118.088 238.886 117.954C230.002 102.711 228.474 83.3509 236.483 66.1206C237.25 64.4634 238.09 62.8731 238.995 61.3412L239 61.3414V61.333ZM62.9363 5.0726C62.1681 3.41245 61.3181 1.81938 60.4192 0.285012C71.0677 -0.0755301 81.422 5.92783 86.2927 16.4169C92.855 30.5366 87.0036 47.4398 73.2252 54.1643C69.1227 56.1682 64.7832 57.0402 60.5336 56.906C69.4169 41.6629 70.9451 22.3029 62.9363 5.0726ZM121.85 62.4146L121.855 62.4229L121.85 62.423V62.4146ZM121.855 62.4229C132.502 62.0727 142.854 68.0674 147.724 78.5549C154.286 92.6746 148.435 109.578 134.656 116.302C130.554 118.298 126.214 119.17 121.965 119.036C130.848 103.793 132.376 84.4325 124.367 67.2022C123.601 65.5451 122.752 63.9547 121.855 62.4229ZM156.942 87.5433C155.332 88.3315 153.771 89.1951 152.276 90.1174V90.1258C151.924 79.2175 157.784 68.611 168.016 63.6138C181.802 56.8893 198.294 62.8843 204.856 77.0039C206.809 81.2046 207.659 85.6568 207.529 90.0084C192.655 80.9027 173.761 79.3348 156.942 87.5433ZM207.52 90.721C206.017 91.6433 204.464 92.5069 202.854 93.2951C186.035 101.504 167.141 99.9357 152.267 90.83C152.137 95.1816 152.987 99.6338 154.94 103.834C161.502 117.954 178.002 123.949 191.78 117.225C202.012 112.227 207.872 101.621 207.52 90.7126V90.721ZM117.004 5.0726C117.772 3.41245 118.614 1.81939 119.521 0.285013C108.873 -0.0755297 98.5267 5.92783 93.6478 16.4169C87.0855 30.5365 92.9368 47.4398 106.715 54.1643C110.818 56.1682 115.157 57.0402 119.407 56.906C110.524 41.6629 108.995 22.3029 117.004 5.0726ZM123.714 59.1532C125.209 58.2309 126.77 57.3673 128.38 56.5792C145.199 48.3707 164.093 49.9386 178.966 59.0442C179.097 54.6926 178.247 50.2404 176.294 46.0398C169.732 31.9201 153.24 25.9252 139.453 32.6496C129.222 37.6468 123.37 48.2533 123.714 59.1616V59.1532ZM128.38 2.58245C126.77 1.79431 125.209 0.930688 123.714 0.00838621V1.5012e-06C123.37 10.9083 129.222 21.5148 139.453 26.512C153.24 33.2365 169.732 27.2415 176.294 13.1219C178.247 8.92119 179.097 4.46898 178.966 0.117388C164.093 9.22304 145.199 10.7909 128.38 2.58245ZM64.3172 119.991C65.8128 119.069 67.3737 118.206 68.9836 117.417C85.8022 109.209 104.697 110.777 119.57 119.882C119.701 115.531 118.851 111.079 116.898 106.878C110.335 92.7583 93.8437 86.7634 80.0571 93.4878C69.8254 98.485 63.9658 109.083 64.3172 120V119.991ZM68.9836 63.4207C67.3737 62.6326 65.8128 61.769 64.3172 60.8467V60.8383C63.9658 71.7466 69.8254 82.3531 80.0571 87.3503C93.8437 94.0748 110.335 88.0798 116.898 73.9602C118.851 69.7595 119.701 65.3073 119.57 60.9557C104.697 70.0613 85.8022 71.6292 68.9836 63.4207Z" fill="#F5F5F5"/>
</svg>
